<svg xmlns="http://www.w3.org/2000/svg" width="200" height="200"><path fill="none" stroke="#eee" stroke-linejoin="round" stroke-width="2" d="M64.2 181.5a89 89 0 00117.3-45.7 89 89 0 00-45.7-117.3A89 89 0 0018.5 64.2a89 89 0 0045.7 117.3z"/><path fill="none" stroke="#eee" stroke-linejoin="round" stroke-width="1.9" d="M24.3 63.5a84 84 0 01112.2-39.2 84 84 0 0139.2 112.2 84 84 0 01-112.2 39.2A84 84 0 0124.3 63.5z"/><g style="line-height:125%"><path fill="#33e" style="-inkscape-font-specification:Georgia" d="M120 3.4q-1.1 0-2.8.4-1.7.2-2.8.6-1.4.5-1.9 1.6t-.5 2.5v33.8q0 2.6-1 5.6-1 3-3.1 5.3-2.4 2.7-5.7 4.3-3.3 1.5-7.5 1.5-6.5 0-10.6-3.7T80 45.4q0-2.7 1.4-4.8 1.4-2.2 4.1-2.2 2.4 0 3.9 1.4 1.5 1.3 1.5 3.6 0 1.2-.6 2.5-.5 1.3-1.1 2.3l-1.4 2.2q-.8 1.2-1 2.2.8 1.4 2.5 2.4 1.8 1 4.9 1 2.9 0 4.7-1.4 2-1.3 2.8-3.6 1-2 1.3-5.1.4-3 .4-6.8V8.9q0-1.4-.5-2.4-.4-1-1.9-1.7-1.2-.6-3.1-1l-3-.4V.6H120v2.8z" font-family="Georgia" font-size="82.3" font-weight="400" letter-spacing="0" word-spacing="0"/></g><g style="line-height:125%"><path fill="#a30" style="-inkscape-font-specification:Georgia" d="M58.7 170H45.2q-4.4-7-8-12.1l-7.9-10.6h-5.1v15.9q0 1.2.4 2.2.4.9 1.6 1.4l2.3.5 2.6.2v2.5H10v-2.5l2.4-.2q1.7-.2 2.3-.5 1-.5 1.5-1.3.5-1 .5-2.3V127q0-1.2-.4-2.1-.3-1-1.6-1.5-.9-.3-2.3-.5l-2.4-.4V120h23q3.3 0 6 .7 2.8.6 5 2 2.3 1.5 3.6 3.7 1.3 2.3 1.3 5.5 0 2.9-1 5.1-.8 2.2-2.5 3.9-1.6 1.5-3.8 2.6-2.2 1-5 1.9l6.2 8.2 6 8.2q1.6 2 2.8 3l2.5 1.7q1 .5 2.3.7 1.4.3 2.3.3v2.5zm-18.5-37.3q0-4.5-2.6-7.2-2.7-2.6-7.4-2.6h-6v21.4h4.6q4.9 0 8.1-3 3.3-3.2 3.3-8.6z" font-family="Georgia" font-size="72.2" font-weight="400" letter-spacing="0" word-spacing="0"/></g><g style="line-height:125%"><path fill="#aa0" style="-inkscape-font-specification:Georgia" d="M198.4 122.5q-1 0-3 .5-2 .6-3 1.1-1.2.9-1.6 3.4-.4 2.4-.4 6.2V170h-3l-30-40.5V155q0 4.3.4 6.6.6 2.3 1.7 3.3.8.8 3.3 1.4 2.5.7 3.3.7v2.5h-20.3V167q1 0 3.2-.6 2.2-.7 2.8-1.1 1.2-1 1.7-3 .4-2 .4-6.9V131q0-1.6-.5-3.2-.6-1.6-1.5-2.5-1.3-1.1-3.4-2-2.2-.8-3.5-.8V120h14.1l27.9 37.8v-23.6q0-4.3-.6-6.6-.5-2.4-1.6-3.1-1-.7-3.2-1.3-2.2-.7-3.3-.7V120h20v2.5z" font-family="Georgia" font-size="71.5" font-weight="400" letter-spacing="0" word-spacing="0"/></g><g font-family="Georgia" font-size="20" font-weight="400" letter-spacing="0" word-spacing="0" style="line-height:125%"><path d="M31.4 51l-2 3.1-4 .3-3.6.4-.7 1.2 3.8 2.2.6.2.5-.2.5-.4.4-.7.6.4-3 5-.6-.3.3-.6.2-.6-.1-.6-.5-.4-8.6-5q-.3-.3-.6-.3l-.6.2-.4.5-.4.5-.6-.4 3.2-5.5 1-1.3 1.2-1q.7-.3 1.4-.2.7 0 1.5.4.7.4 1 1 .5.5.6 1.1.2.6.1 1.3l-.2 1.4 2.8-.3 2.8-.3q.7 0 1.1-.2l.8-.4.5-.4.4-.5.6.3zM19.8 50q-1-.6-2-.4-1 .3-1.7 1.4l-.9 1.4 5.2 3 .6-1q.7-1.2.4-2.4-.3-1.2-1.6-2zM35.3 42.7q.5 1.2.4 2.4-.1 1.2-1 2.3-.6.9-1.5 1.3t-1.8.4q-.9 0-1.8-.3-.9-.4-1.7-1-.7-.6-1.3-1.4-.5-.8-.7-1.7-.2-.9 0-1.8.2-1 .8-1.7.7-.8 1.4-1.2.7-.4 1.5-.4.7 0 1.4.3l1.4.8.5.4-4 5 1.5 1q.7.3 1.4.3t1.3-.2q.7-.3 1.2-1 .5-.6.6-1.4 0-.7-.4-1.8l.8-.3zm-4.2-.6l-1-.7-1-.4h-1q-.4.2-.8.7-.7.8-.4 1.8.2 1 1.4 2l2.8-3.4zM41 40l-3.3 3.5-.4-.5.3-.4.2-.3v-.5q0-.3-.2-.5l-8-7.7q-.3-.3-.7-.4h-.6l-.6.3-.6.4-.4-.4 2.3-2.8h.2l9.5 9.2.5.3h.6l.3-.3.4-.3.5.5zM45.3 36L42 39.3l-.4-.5.3-.3.2-.4q.2-.2.1-.4 0-.3-.3-.6l-4-4.4-.4-.3h-.6l-.6.2-.5.3-.4-.5 2.3-2.4h.2l5.3 5.8q.2.3.5.4h.5l.4-.2.4-.3.4.5zm-10-9.1q.4.4.4 1 0 .5-.4.8-.3.4-.9.3-.5 0-.9-.4-.3-.4-.3-1 0-.5.4-.8.4-.4.9-.3.5 0 .8.4zM53.4 29.7l-.5.7-.5.5q-.7.5-1.2.5-.6 0-1.1-.5l-.5 1.7q-.4.7-1.2 1.3-.9.7-1.8.6-1-.2-1.6-1-.4-.5-.5-1-.1-.4 0-.8l.1-.8.4-.8 1-1.5q.9-1.2 1-1.7l-.5-.8-.3-.3-.6-.4-.8-.2q-.5 0-1 .4l-.6.6-.2.6.4.4.5.5q.2.3.1.7 0 .4-.5.7-.4.3-.8.2-.4-.2-.6-.5-.3-.4-.3-.9l.2-1q.2-.6.6-1 .4-.6.9-1 .6-.5 1.2-.7.5-.3 1.2-.3.6 0 1.2.3l1.1 1.2q.9 1 1.5 2l1.4 1.9.4.4h.6l.4-.2.5-.3.4.5zm-5.8-2.1l-.9 1.2-.6 1.2q-.2.5-.1 1 0 .6.4 1.1.5.7 1 .7.6 0 1.2-.3.5-.4.7-1 .3-.6.3-1.2l-2-2.7zM60.5 20.3q1 1.8.6 3.8-.5 2-2 2.8l-1.6.6q-.7.2-1.5.1l-.1 1.4-.6.1-.8-1.5-1-1.7-4.6-8.3-.5-.5-.6-.2-.6.1-.6.3-.3-.6 3-2 .1.1 3.1 5.6h.1q.2-.9.7-1.5.4-.7 1-1 1.6-.9 3.3-.2 1.8.6 2.9 2.6zm-1.8 1l-.8-1.2q-.5-.6-1.1-.9l-1.2-.4q-.7 0-1.3.4-.6.3-1 .8l-.4 1 2.8 5 .5.3.7.3q.3.1.8 0l.8-.2q1-.6 1.1-2 .1-1.3-.9-3zM68.3 22.1l-4.3 2-.2-.7.4-.2.3-.3q.2-.1.3-.4l-.1-.6-4.5-10.2q-.1-.3-.4-.5-.3-.3-.6-.3h-.6l-.8.2-.2-.5 3.2-1.7h.2l5.3 12.2.3.5h1.5l.2.5zM76.8 16.7q-.2 1.3-1 2.3-.7 1-2 1.4-1 .3-2 .2-1 0-1.7-.6-.8-.5-1.3-1.2l-1-1.8-.2-1.9q0-1 .3-1.8t1-1.5q.6-.7 1.6-1 1-.3 1.8-.2.8 0 1.4.4.6.4 1 1 .5.7.8 1.5l.2.6-6 2q.3 1 .7 1.6.4.7 1 1.1.5.4 1.2.5.7.2 1.5-.1.8-.3 1.3-.9.4-.6.7-1.7l.7.1zM73.6 14l-.4-1-.6-1q-.4-.3-.9-.4-.4-.2-1 0-1 .3-1.4 1.4-.3 1 .1 2.4l4.2-1.4zM134.8 23.1l-3.5-1.2-1-3.9-1-3.5-1.4-.4-1.5 4.1v.6q0 .3.2.5l.6.3.7.4-.3.6-5.5-2 .2-.6.7.2h.6l.5-.1.4-.6 3.3-9.4.1-.6q0-.3-.3-.6l-.5-.3-.6-.3.2-.7 6 2.1q.9.3 1.5.7l1.2 1q.4.6.5 1.3.2.7-.1 1.6l-.7 1.2-1 .8q-.6.3-1.3.3h-1.5l.9 2.8.8 2.7.4 1 .6.7.5.4.6.3-.3.6zm-1.4-11.4q.4-1.2 0-2.1-.4-1-1.7-1.4l-1.6-.5-2 5.6 1.3.4q1.3.4 2.4 0 1.1-.6 1.6-2zM143.6 25.4q-1 .7-2.2.9-1.3.1-2.4-.5-1-.5-1.7-1.3-.5-.7-.7-1.6-.2-1 0-1.9.2-1 .7-1.9.4-.8 1-1.5.7-.6 1.6-1 .8-.4 1.7-.4 1 0 1.9.5 1 .5 1.4 1.1.5.7.7 1.4v1.5l-.6 1.5-.3.6-5.6-3-.7 1.6V23q0 .7.4 1.3.4.5 1.2 1 .7.3 1.5.3.7-.1 1.7-.8l.4.7zm-.2-4.3l.5-1 .2-1.1-.2-1q-.2-.4-.8-.6-.9-.5-1.9 0-1 .4-1.7 1.7l4 2zM155.7 26l-.2 1.8q-.3.9-1 1.9-.6.9-1.4 1.5-.9.5-1.7.7-1 .2-1.8 0-.9-.1-1.6-.6-.8-.5-1.1-1l-.5-.9-1.7 2.4q-.2.2-.2.5l.1.5.5.5.5.5-.3.6-4.5-3 .4-.6.5.3.5.2h.5q.3-.2.4-.5l5.8-8.4.2-.6v-.5q0-.2-.3-.5l-.5-.4.4-.5 2.8 1.7v.2l-.5.8v.1q.8-.2 1.6 0 .8 0 1.4.4.8.6 1.2 1.3.4.7.5 1.6zm-5.3 4.8q.7-.3 1.3-.9.6-.5 1.2-1.3l.7-1.3q.3-.7.3-1.4l-.2-1.2q-.2-.6-.8-1-.6-.5-1.2-.5l-1.2.1-3.2 4.7-.1.6.1.7.3.7.6.6 1 .4 1.2-.2zM164 33.2l-.8.5-.8-.2q-.4-.4-.4-.8t.2-.7l.3-.2.2-.3q-.3-.3-1-.4-.7-.1-1.5.1l-3.7 4.2-.3.5.1.5.4.6.5.5-.5.5-3.8-3.4.5-.5.3.3.4.2h.5q.2 0 .5-.3l3.9-4.5.3-.5v-.6l-.2-.4-.4-.5.4-.4 2.6 2v.1l-.9 1h1.8q.9.2 1.3.6.5.4.5 1t-.4 1zM169 43.7q-.7.7-1.7 1-.9.5-1.8.5-1 0-2-.4-.8-.4-1.5-1.2-.6-.7-1-1.5-.3-.9-.2-1.8 0-.9.5-1.8.5-1 1.3-1.7 1.7-1.5 3.6-1.5 2 0 3.4 1.6 1.4 1.5 1.2 3.4 0 1.9-1.8 3.4zm-1.3-1.5l1-1.2q.5-.6.7-1.2.3-.6.2-1.3 0-.6-.5-1.1-.6-.6-1.2-.7-.6-.2-1.3 0-.7.2-1.3.6l-1.2.9q-.7.6-1.2 1.3-.5.6-.7 1.3-.2.6-.2 1.3.1.6.6 1.1.8 1 2.2.7 1.3-.3 2.9-1.7zM172.4 56.7l-2-2.7v-.2l.7-.5q-.8-.2-1.5-.6-.7-.4-1.2-1-.4-.7-.6-1.6l.1-1.6q.3-.9.8-1.7.6-.8 1.6-1.5.8-.6 1.8-.8 1-.2 2-.1.8.1 1.6.6t1.3 1.2l.6 1.2q.3.6.3 1.2l2.8-2 .5-.5.2-.6-.2-.7-.4-1 .5-.3 2.4 3.1v.3L173 54.2l-.5.5v.5l.1.5.4.6-.6.4zm-.6-4l4.7-3.1.3-.5.2-.7v-.8l-.5-.8q-.3-.5-.8-.7-.5-.2-1.2-.2t-1.5.3q-.8.3-1.7.9-.6.4-1.1 1-.5.5-.7 1-.3.7-.3 1.3 0 .6.5 1.2.4.7 1 .9l1.1.3zM177.5 66.7L176 64l.1-.2 1-.5-.6-.3-.8-.4-.7-.6-.7-1q-.6-1-.1-2 .4-1 1.9-1.7l4-2.1.5-.4q.2-.2.2-.5v-.5q0-.3-.2-.5l.6-.3 1.6 2.7v.2l-6 3q-1 .5-1.2 1.2-.3.6 0 1.2l.6.8.7.4.6.3h.5l4.9-2.4.4-.4q.2-.2.2-.5v-.6l-.4-.7.6-.2 1.8 3v.2l-7 3.4-.4.4-.1.5v.4q0 .3.2.5l-.6.3zM179 72.2q-.6-2 .3-3.5.9-1.6 3-2.4 1-.3 2-.3.9 0 1.8.3.8.3 1.5 1 .7.6 1 1.6.5 1.3.2 2.4-.3 1-1.4 1.5h-1q-.4 0-.5-.6-.2-.5 0-.9 0-.4.4-.5.4-.2 1-.2l.6-.1.2-.6-.1-.8-.5-.8-1-.5q-.6-.2-1.4 0-.9 0-2 .4-1.7.6-2.5 1.7-.8 1.2-.4 2.4.4 1 1 1.3.6.5 1.7.7l-.2.7q-1.3-.2-2.3-1-1-.7-1.3-1.8zM182 81l-1.3-4.4.7-.2.1.4.2.4q.2.3.4.3h.6l5.7-1.5q.3 0 .6-.3l.3-.5v-.5-.7l.6-.1 1 3.2v.2l-7.6 2q-.4 0-.5.2l-.3.5v.9l-.6.2zm12.7-4.5q-.5.1-1-.2-.5-.2-.6-.7-.2-.5.1-1 .3-.4.8-.5.5-.2 1 0 .5.3.6.8.1.6-.1 1-.3.4-.8.6zM188.6 91.1q-2.2.4-3.8-.8-1.7-1-2-2.9V86l.4-1.6-1.2-.5v-.6l1.8-.2 2-.3 9.3-1.5q.4 0 .7-.2.3-.2.4-.5V80v-.7l.7-.1.7 3.4v.2l-6.4 1q.8.5 1.2 1.2.4.7.5 1.3.3 1.8-.9 3.2-1.2 1.4-3.4 1.7zm-.4-2q.7 0 1.4-.4.7-.2 1.2-.6l.8-1q.3-.6.2-1.4-.1-.6-.5-1.1-.3-.5-.9-.8l-5.5.9q-.2 0-.5.3l-.5.5-.4.7v1q.2 1.1 1.5 1.7 1.2.5 3.2.2zM184 97.8l-.2-4.7h.7v.5l.1.4.3.4.6.1 11.2-.6.6-.2.5-.4.2-.7V92h.7l.4 3.5-.2.2-13.2.7q-.3 0-.5.2-.2.1-.3.4l-.1.4v.5h-.7zM186.1 107.7q-1.1-.6-1.8-1.7-.6-1-.6-2.3 0-1.2.5-2 .5-1 1.2-1.5t1.7-.8l2-.2q.9 0 1.8.4.9.3 1.6 1 .6.5 1 1.4.4.8.4 1.8t-.4 1.8q-.4.8-1 1.2-.5.4-1.3.6-.7.2-1.6.2h-.6l.2-6.4-1.7.1-1.4.5q-.6.4-1 1-.3.6-.3 1.4 0 1 .3 1.6.4.6 1.5 1.2l-.5.7zm3.8-2h1.1q.7-.1 1-.3.5-.2.8-.6.3-.4.4-1 0-1-.8-1.7-.9-.8-2.4-.9l-.1 4.5z" style="-inkscape-font-specification:Georgia"/></g><g font-family="Georgia" font-size="20" font-weight="400" letter-spacing="0" word-spacing="0" style="line-height:125%"><path d="M77.7 186.5l-3.5-1.2-1-4-1-3.4-1.4-.5-1.5 4.2v.6l.2.5.6.3.6.3-.2.7-5.5-2 .2-.6.7.1.6.1q.3 0 .5-.2l.4-.5 3.3-9.5v-.6q0-.3-.2-.5l-.6-.4-.6-.3.3-.6 6 2 1.5.8q.7.4 1.1 1 .5.6.6 1.3.1.7-.2 1.5-.2.8-.7 1.3-.4.5-1 .7l-1.2.4h-1.5l.9 2.7.8 2.7.4 1.1.5.7.6.4.5.2-.2.7zM76.3 175q.4-1.1 0-2-.5-1-1.7-1.5L73 171l-2 5.6 1.3.4q1.2.5 2.4 0 1-.6 1.6-2zM86.9 185.9q-.8 1-2 1.4-1.1.5-2.4.2-1.1-.2-1.9-.8-.8-.6-1.2-1.4-.4-.8-.5-1.7l.1-2q.2-1 .7-1.8.5-.8 1.2-1.4.7-.6 1.6-.8.9-.3 1.9 0 1 .2 1.7.6.6.5 1 1.2.3.6.4 1.4l-.1 1.6-.2.6-6.2-1.3-.2 1.8q0 .7.3 1.4.3.6.8 1 .5.5 1.4.7.8.2 1.5-.1.7-.3 1.5-1.2l.6.6zm-1.4-4l.2-1.2-.1-1.1q-.1-.5-.5-.9-.3-.3-.9-.4-1-.2-1.8.5-.9.7-1.2 2.1l4.3 1zM94.4 184.2l.5.8q.2.5.1 1.2-.1 1.3-1.2 2-1.1.8-2.7.6-.8 0-1.5-.4l-1-.7-.2.6h-.7l.2-3.4h.7l.2 1 .5 1 .9.8q.5.3 1.1.4 1 0 1.5-.3.6-.4.6-1.1v-.8l-.5-.5-.7-.5-1-.5-1-.4-.9-.7q-.4-.4-.6-1-.2-.4-.2-1.1.2-1.2 1.1-2 1-.6 2.4-.5.6 0 1.2.3l.9.4.3-.5.7.1-.2 3.1h-.7q0-1.1-.7-1.8-.6-.7-1.6-.8-.8-.1-1.3.2-.5.4-.5 1v.7l.5.5q.2.3.7.5l1 .5 1.2.6.9.7zM104.7 186.7q-.6 1.2-1.6 1.9t-2.3.7q-1.2 0-2-.4-1-.4-1.5-1.1-.6-.7-.9-1.7l-.2-2 .2-1.8q.3-1 1-1.6.5-.7 1.3-1.2.8-.4 1.8-.4t1.8.3q.8.4 1.3 1 .4.5.6 1.2.3.8.3 1.6v.7H98q0 1 .2 1.7.2.8.6 1.4.3.5 1 .9.6.3 1.4.3.9 0 1.5-.4t1.2-1.5l.7.4zm-2.2-3.6v-1.2q-.1-.6-.4-1-.2-.5-.6-.8-.4-.3-1-.3-1 0-1.7 1-.7.8-.7 2.3h4.4zM114.9 187.7l-.8.4-.7.1q-.8.1-1.3-.2-.5-.3-.7-1-.6.8-1.3 1.3-.6.5-1.7.6-1 .1-1.8-.5t-1-1.6l.1-1q.1-.5.4-.9l.6-.6.7-.4 1.7-.8q1.3-.6 1.7-1l-.1-.9-.1-.5-.3-.6-.6-.6q-.4-.2-1-.1-.5 0-.9.2l-.5.4.2.5.1.7q0 .4-.2.7-.3.3-.8.4-.5 0-.8-.3l-.3-.7.2-1 .8-.8 1-.5 1.2-.4h1.4q.6 0 1.2.3.5.3.8 1 .4.5.5 1.5l.2 2.4.3 2.4q0 .4.2.6.1.2.4.3h1.1l.1.6zm-4-4.7l-1.4.6-1 .7q-.5.4-.7.9-.3.5-.2 1.1.1.8.6 1.1.4.4 1 .3.8 0 1.3-.5l.8-.9-.4-3.3zM121.2 177.9q.2.4 0 .9-.2.4-.7.5-.5.1-.8 0-.4-.3-.4-.6l-.1-.4v-.4q-.5.1-1 .6t-.8 1.3l1.2 5.4.3.6.5.2H120.7l.1.5-5 1.1v-.6l.4-.1.4-.2q.2-.1.3-.4v-.6l-1.3-5.8q0-.3-.3-.5-.2-.3-.5-.4h-1l-.1-.6 3-1 .2.2.3 1.3q.5-1 1.1-1.5.7-.6 1.3-.7.6-.1 1 .2.5.3.6 1zM128.2 184.7q-2 .6-3.6-.3-1.5-1-2.2-3.2-.4-1-.3-1.9 0-1 .4-1.8.3-.9 1-1.5.7-.7 1.7-1 1.3-.5 2.4 0 1 .3 1.4 1.4v.9q0 .4-.6.6-.5.2-1 0-.3-.2-.4-.5l-.2-1v-.6q-.4-.3-.7-.2h-.8q-.4.2-.7.6-.4.3-.6 1-.2.5-.1 1.4 0 .8.4 2 .5 1.6 1.6 2.5 1.2.8 2.4.4.9-.3 1.4-1 .4-.6.7-1.6l.7.2q-.3 1.3-1 2.3-.9 1-2 1.3z" style="-inkscape-font-specification:Georgia"/><path d="M142 178.6l-4.3 2-.2-.6.4-.2.4-.3.2-.4-.1-.6-2-4.5q-.5-1-1.2-1.2-.6-.4-1.3 0-.4.1-.8.5l-.5.7-.3.6v.5l2.3 5 .3.5.5.1h.5l.5-.2.3.6-4.3 2-.3-.6.4-.3q.2 0 .3-.2.3-.2.3-.4l-.1-.6-4.7-10.2q-.1-.3-.4-.5-.3-.3-.6-.3h-.6l-.7.3-.3-.6 3.2-1.7.2.1 2.8 6.1.3-.8.4-.7q.2-.4.6-.7l1-.7q1.2-.5 2.1 0 1 .4 1.6 1.8l2.1 4.5.4.5.5.1h.4l.5-.2.2.6z" style="-inkscape-font-specification:Georgia"/></g></svg>
